<?xml version="1.0" encoding="utf-8"?>
<!-- Generator: Adobe Illustrator 25.0.1, SVG Export Plug-In . SVG Version: 6.00 Build 0)  -->
<svg version="1.1" id="Layer_1" xmlns="http://www.w3.org/2000/svg" xmlns:xlink="http://www.w3.org/1999/xlink" x="0px" y="0px"
	 viewBox="0 0 520 540" style="enable-background:new 0 0 520 540;" xml:space="preserve">
<style type="text/css">
	.st0{fill:#3F276E;}
	.st1{fill:#4D347A;}
	.st2{fill:#483176;}
	.st3{fill:#493077;}
	.st4{fill:#4B3278;}
	.st5{fill:#452D72;}
	.st6{fill:#4F397C;}
	.st7{fill:none;}
	.st8{fill:#533D7F;}
	.st9{fill:#4A3377;}
	.st10{fill:#432B71;}
	.st11{opacity:0.9;fill:#432B71;enable-background:new    ;}
	.st12{fill:#41296F;}
	.st13{opacity:0.6;fill:#493077;enable-background:new    ;}
</style>
<g id="group">
	<polygon id="state-fill" class="st0" points="165.8,330.1 173.8,333.4 193.8,367 206.3,380 209.5,389.5 221.3,396.7 221.3,428.4 
		231.3,435.7 268.3,436.4 302.6,460.1 318.5,457.5 324.4,474.6 339.6,473.3 369.4,499.1 386.5,540 445.5,532.7 498.2,526.1 
		508.8,518.2 499.5,507 500.2,483.2 506.1,477.9 503.5,458.8 520,435.7 511.1,424.9 496.2,405.3 494.9,396.7 441.2,349.8 
		389.8,296.5 249.1,150.9 249.3,112.8 249.4,82.7 249.6,54.5 249.8,5.9 221.5,5 122,1.6 75.3,0 78.6,32.3 77.3,56.1 62.4,90.1 
		64.8,101 86.6,125.4 93.2,177.7 	"/>
	<g id="state-poly">
		<polygon class="st1" points="78.6,32.3 77.3,56.1 62.4,90.1 107,57.8 		"/>
		<polygon class="st1" points="64.8,101 62.4,90.1 107,57.8 86.6,125.4 		"/>
		<polyline class="st2" points="93.2,177.7 86.6,125.4 107,57.8 		"/>
		<polygon class="st1" points="231.3,435.7 326.3,382.2 205.2,316.1 206.3,380 209.5,389.5 221.3,396.7 221.3,428.4 		"/>
		<polygon class="st3" points="268.3,436.4 231.3,435.7 326.3,382.2 289,451.5 		"/>
		<polygon class="st3" points="406.2,454.2 369.4,499.1 339.6,473.3 324.4,474.6 318.5,457.5 302.6,460.1 289,451.5 326.3,382.2 		
			"/>
		<polygon class="st4" points="438.3,384.2 406.2,454.2 326.3,382.2 		"/>
		<polygon class="st3" points="328.3,316.1 326.3,382.2 438.3,384.2 		"/>
		<polygon class="st3" points="438.3,384.2 328.3,316.1 390.5,297.2 		"/>
		<polyline class="st5" points="438.3,384.2 496.2,405.3 494.9,396.7 441.2,349.8 390.5,297.2 438.3,384.2 		"/>
		<polygon class="st4" points="510.9,424.7 496.2,405.3 438.3,384.2 406.2,454.2 		"/>
		<polygon class="st4" points="520,435.7 510.9,424.7 406.2,454.2 500.2,483.2 506.1,477.9 503.5,458.8 		"/>
		<polygon class="st1" points="498.2,526.1 446.1,532.7 406.2,454.2 500.2,483.2 499.5,507 508.8,518.2 		"/>
		<polygon class="st3" points="386.5,540 446.1,532.7 406.2,454.2 369.4,499.1 		"/>
		<polygon class="st2" points="173.8,333.4 193.8,367 206.3,380 205.2,316.1 		"/>
		<polygon class="st2" points="328.3,316.1 326.3,382.2 205.2,316.1 		"/>
		<polygon class="st6" points="107,57.8 78.6,32.3 75.3,0 122,1.6 		"/>
		<polygon class="st2" points="122,1.6 221.5,65.6 107,57.8 		"/>
		<polygon class="st2" points="249.8,5.9 221.5,5 221.5,65.6 249.6,54.5 		"/>
		<polygon class="st1" points="221.5,65.6 249.4,82.7 249.6,54.5 		"/>
		<line class="st7" x1="249.3" y1="112.8" x2="249.1" y2="150.9"/>
		<polygon class="st8" points="221.5,5 122,1.6 221.5,65.6 		"/>
		<polygon class="st4" points="221.5,65.6 200.6,172.2 249.1,150.9 249.3,112.8 249.4,82.7 		"/>
		<polygon class="st2" points="200.6,172.2 172.6,138 107,57.8 221.5,65.6 		"/>
		<polygon class="st1" points="249.3,112.8 200.6,172.2 249.1,150.9 		"/>
		<polygon class="st9" points="249.1,150.9 390.5,297.2 328.3,316.1 205.2,316.1 173.8,333.4 165.8,330.1 93.2,177.7 173.1,138.9 
			200.6,172.2 		"/>
		<polygon class="st9" points="107,57.8 172.6,138 93.2,177.8 		"/>
	</g>
	<path id="bear-fill" class="st10" d="M434.7,283.8c-2-23.2-1.2-26.7-1.2-26.7l2.9-2l-3.1-7.3c-5-11.6-14.9-34.9-14.9-34.9
		c-1.1-1.8-0.9-3.4-0.9-5.4c-0.7-4.2-1.7-8.6-4.1-11.8c-2.2-2.7-5.4-4.9-9.8-5.9c-0.5-0.5-1-1.1-1.5-1.6
		c-38.7-40.7-97.6-42-133.1-38.5c-7.8,0.8-35,2.4-42.6,3.1c-21.2,0-27.6-12.9-52.1-14.7c-8.7-0.7-26.6,8.8-34.1,13.5
		c-5.2,3.7-9.8,6.3-13.9,8.3c-4.4,2.7-9.3,4.5-14,6.4c-1.7,0.9-3.3,1.8-4.8,2.8c-2.4,0.7-4.4,1.4-6,2.1c-3,1.7-5.9,3.8-8.3,6.6
		c-1.4,2.3-6.5,7.2-8.7,9.2c-2,1.8-1.5,1.4-3.6,3.2c-6.8-8.8-18-12.7-20.9,3.2c-14-6.4-18.4,1.7-18.6,12.8l-15.7,18.3
		c0,0-2,3.5-2,17.2C8.7,257.7,0,267.3,0,267.3c27.9,35.6,49.1,6.9,78,17.5c11.8,5.9,23.4-9.7,31.2-18.7c6.5-4.7,15.1-4.6,22.7-3.7
		c0.3,0,0.4,0,0.5,0.1s-0.1,0.4-0.2,0.7c-0.8,2.3-1.5,4.6-2.2,7c-3.2,10.6-5.4,21.7-5.7,32.7c-4.4,6.1-13.9,11.3-21.2,36.3
		c-16,4.1-9.6-7-25.9,1.7c-16.8,13.9-1.7,10.2,8.7,10.2s37.5,0.3,37.5,0.3s14.5-19.7,25.9-21.5c6.6-1,8.9-6.8,14.4-7.9
		c8.3-5.5,16.5-12.9,24.1-20.3c0.6-0.6,1.2-1.2,1.8-1.8c1.6-1.6,4.8-4.7,4.8-4.7l6,5.3c9.3,8.3,18.6,16.8,27.6,25.3
		c0.1,6.1-1,12.1-6.7,9.4c-11.9-0.2-18.8,5.1-18.1,12.7h37.7c2.7-3.2,5.1-6,7.1-8.6c18.8-23.8,11.4-26.2,2.2-51
		c-0.6-1.6-1.2-3.3-1.8-5.1c12.3,1.8,25.8,3.5,37.7-1.7c2.2-1,4.6-3.9,7.1-3.6c0.6,0.1,1.3,0.3,1.9,0.9l0.7,0.7
		c0.8,0.8,1.5,1.7,2.5,2c-6.3,11.7-6.1,24.2-4.6,34.7c1.9,13.4,6,23.4,1.3,24c-18.2-7.3-27.1,3.6-24.9,12h56.3
		c0.5-0.4,0.7-0.9,1-1.3c3-5.4-4.9-13.9,10.6-17.4c1.8-2,4.1-4.6,6.6-7.6c5.9-6.9,13.1-15.4,18.8-22.9c1.7-2.5,4.4-7.5,6.3-7.5
		c2,0.1,5.6,6.7,7.1,10.4c1.5,3.6,2.7,7.4,4.4,10.7c0.7,6.2,33.6,13.1,39.8,15.6c8.5,5.8-0.2,5.1-7.3,3.8
		c-13.7-2.4-17.4,16.6-17.4,16.6c8.9-0.2,36.6-0.9,44.9-1c0.9-10.5,5.9-21,10.4-31.6C450.8,311.9,436.5,308.4,434.7,283.8z"/>
	<g id="bear-poly">
		<path class="st11" d="M174.2,138l-27.6,74.1L84.4,187c2.2-2,7.3-6.9,8.7-9.2c2.4-2.8,5.2-4.9,8.3-6.6c1.6-0.7,3.6-1.4,6-2.1
			c1.5-1.1,3-2,4.8-2.8c4.8-1.8,9.6-3.7,14-6.4c4.1-2,8.7-4.6,13.9-8.3C147.6,146.8,165.4,137.4,174.2,138z"/>
		<path class="st5" d="M295,278.6l-1.9-0.9l-86.6-41.2l19.8-83.9c7.6-0.7,34.8-2.3,42.6-3.1L295,278.6z"/>
		<path class="st3" d="M206.5,236.6l-12.2,58.6l-64.4-25c0.7-2.3,1.5-4.7,2.2-7c0.1-0.3,0.3-0.6,0.2-0.7c-0.1-0.1-0.2-0.1-0.5-0.1
			l14.9-50.2L206.5,236.6z"/>
		<path class="st12" d="M293.2,277.8c-2.4-0.3-4.8,2.6-7.1,3.6c-11.9,5.2-25.4,3.5-37.7,1.7c0.6,1.8,1.2,3.5,1.8,5.1l-49.9,12.2
			l-6-5.3l12.2-58.6L293.2,277.8z"/>
		<path class="st13" d="M226.3,152.7l-19.8,83.9l-59.8-24.4l27.5-74.1C198.6,139.8,205,152.7,226.3,152.7z"/>
		<path class="st10" d="M418.4,212.9l-48.8,82.5l-71.4-14c-1-0.4-1.7-1.3-2.5-2l-0.7-0.7l122.6-71.2
			C417.6,209.5,417.4,211,418.4,212.9z"/>
		<path class="st10" d="M417.6,207.5L295,278.6l-26.1-129.1c35.5-3.5,94.6-2.2,133.1,38.5c0.5,0.5,1,1.1,1.5,1.6
			c4.6,1.1,7.7,3.2,9.8,5.9C415.9,198.9,416.9,203.3,417.6,207.5z"/>
		<path class="st0" d="M433.3,247.8l-63.8,47.6l48.8-82.5C418.4,212.9,428.4,236.2,433.3,247.8z"/>
		<polygon class="st0" points="84.4,187 132.3,262.4 146.7,212.2 		"/>
	</g>
	<path id="star-fill" class="st12" d="M321.1,56.4L331.8,25l10.2,31.6l31.8,0.9l-25.5,19.9l9,32l-26-19.3l-26.3,18.9l9.4-31.9
		l-25.2-20.3L321.1,56.4z"/>
</g>
</svg>
