<?xml version="1.0" encoding="utf-8"?>
<!-- Generator: Adobe Illustrator 25.0.1, SVG Export Plug-In . SVG Version: 6.00 Build 0)  -->
<svg version="1.1" id="Layer_1" xmlns="http://www.w3.org/2000/svg" xmlns:xlink="http://www.w3.org/1999/xlink" x="0px" y="0px"
	 viewBox="0 0 312 312" style="enable-background:new 0 0 312 312;" xml:space="preserve">
<style type="text/css">
	.st0{fill:#FCEDED;}
	.st1{fill:#634286;}
	.st2{fill:#342B6B;}
	.st3{fill:#F5F7F8;}
	.st4{fill:#EBEAF7;}
	.st5{fill:#4E3F91;}
	.st6{fill:none;}
</style>
<g>
	<g transform="translate(-718.688 -1363.507)">
		<path class="st0" d="M988.1,1461c57.7,106.7-50.7,227-162.8,181c-111.7-45.1-102.8-211.3,13.6-242.8c-28,23-25.8,68,4.7,87.7
			c0,0-19,0.3-19,0.3c-7.9-0.1-15.7-0.7-23.5,0.7c-49.2,8.5-60,78.2-14.9,100.3c13,6.1,14.9,17.4,14,30.4c-0.5,5.3,5.8,7.7,8.4,2.9
			c4-5.8,7.9-11.7,11.8-17.5c5.3-7.4,12.6-9.9,21.5-9.6c10.9,0.4,21.8,0.1,32.8,0.1c54.1,0.7,75.7-69.3,30.4-99
			c20.6-2.6,24.7,13.5,35.2,27.1c3.6,5.1,9.5,1.6,8.7-3.7c0-6.7-0.7-13.6,2.4-20C959.3,1485,974.6,1490.1,988.1,1461z"/>
		<path class="st1" d="M988.1,1461c-13.5,29.1-28.7,23.9-36.7,37.8c-4.9-7.4-11.6-10.7-20.6-10.7c-15.3,0-30.7,1.2-45.9-1.1
			c-48.1-9.1-59.5-72-18.6-98.6H863c24.8-2.9,50.4-0.4,75.4-1.1C975.6,1386.7,1001.9,1426.9,988.1,1461z M895.5,1441.9
			c0,13.1,19.4,13.5,19.9,0.4C915.4,1429.2,896.1,1428.9,895.5,1441.9L895.5,1441.9z M879,1442.3c0.1-13-19.3-13.5-19.8-0.5
			C859.1,1454.9,878.4,1455.3,879,1442.3z M951.7,1442.4c0.4-12.9-18.8-13.8-19.6-0.9C931.6,1454.5,950.9,1455.4,951.7,1442.4z"/>
		<path class="st2" d="M863,1388.4h3.3c-40.9,26.6-29.4,89.5,18.6,98.6c15.2,2.3,30.6,1.1,45.9,1.1c9,0,15.7,3.3,20.6,10.7
			c-3.1,6.4-2.3,13.2-2.4,20c0.8,5.3-5,8.9-8.7,3.7c-3.5-5-7.2-9.8-10.3-15.1c-5.7-9.7-14.1-13.1-24.9-12
			c-20.7-0.7-43.2,3.3-61.6-8.6C803.4,1460.5,815.2,1396.8,863,1388.4z"/>
		<path class="st3" d="M843.6,1486.8c18.4,11.8,40.9,7.9,61.6,8.6c45.2,29.8,23.7,99.7-30.4,99c-10.9,0.1-21.9,0.3-32.8-0.1
			c-8.9-0.3-16.2,2.2-21.5,9.6c-2.3-6.5-5.9-11.6-12.4-14.9c-38.8-17.6-40.6-77.3-1.2-96.2c5.6-3,11.6-4.5,17.7-5.8
			C824.6,1487.1,843.6,1486.8,843.6,1486.8z M797.4,1541.4c-0.2,12.9,19,13.5,19.6,0.6C817.3,1529.1,797.7,1528.3,797.4,1541.4z
			 M880.3,1531.9c-13.2-0.1-13.5,18.9-0.5,19.6C892.6,1551.4,893.1,1532.5,880.3,1531.9L880.3,1531.9z M843.6,1551.5
			c13,0,13.2-19.4,0.2-19.6C830.8,1531.8,830.5,1551.2,843.6,1551.5z"/>
		<path class="st4" d="M824.6,1487.1c-53.2,8.1-64,78.4-16.5,102c6.5,3.3,10.1,8.4,12.4,14.9c-3.9,5.8-7.8,11.7-11.8,17.5
			c-1.2,1.7-2.8,3.2-5.2,2.4c-5.6-1.8-2.3-11-3.3-15.6c-0.5-9.6-5.5-15.8-13.9-20.1c-45.2-22.2-34.3-91.8,14.9-100.3
			C808.9,1486.4,816.8,1487,824.6,1487.1z"/>
		<path class="st3" d="M895.5,1441.9c0.4-13.1,19.9-12.7,19.9,0.3C915,1455.3,895.5,1455,895.5,1441.9L895.5,1441.9z"/>
		<path class="st3" d="M879,1442.3c-0.5,13-19.9,12.6-19.8-0.4C859.7,1428.8,878.9,1429.3,879,1442.3z"/>
		<path class="st3" d="M951.7,1442.4c-0.7,12.8-19.6,12.2-19.6-0.5C932.4,1428.7,952,1429.3,951.7,1442.4z"/>
		<path class="st5" d="M797.4,1541.4c0.4-13.1,19.9-12.2,19.6,0.7C816.3,1554.9,797.2,1554.2,797.4,1541.4z"/>
		<path class="st5" d="M880.3,1531.9c12.7,0.7,12.3,19.6-0.5,19.6C866.8,1550.8,867.1,1531.8,880.3,1531.9z"/>
		<path class="st5" d="M843.6,1551.5c-13-0.3-12.8-19.7,0.2-19.6C856.8,1532.1,856.6,1551.5,843.6,1551.5z"/>
	</g>
</g>
<circle class="st6" cx="156" cy="156" r="156"/>
</svg>
