<?xml version="1.0" encoding="utf-8"?>
<!-- Generator: Adobe Illustrator 25.0.1, SVG Export Plug-In . SVG Version: 6.00 Build 0)  -->
<svg version="1.1" id="Layer" xmlns="http://www.w3.org/2000/svg" xmlns:xlink="http://www.w3.org/1999/xlink" x="0px" y="0px"
	 viewBox="0 0 312 312" style="enable-background:new 0 0 312 312;" xml:space="preserve">
<style type="text/css">
	.st0{clip-path:url(#SVGID_2_);fill:#FCEDED;}
	.st1{clip-path:url(#SVGID_2_);fill:#F6B3B8;}
	.st2{clip-path:url(#SVGID_2_);fill:#F5998F;}
	.st3{clip-path:url(#SVGID_2_);fill:#FAFAFA;}
	.st4{clip-path:url(#SVGID_2_);fill:#EBEAF7;}
	.st5{clip-path:url(#SVGID_2_);fill:#B47B7B;}
	.st6{clip-path:url(#SVGID_2_);fill:#081240;}
	.st7{clip-path:url(#SVGID_2_);fill:#BF4F53;}
	.st8{clip-path:url(#SVGID_2_);fill:#9F423F;}
	.st9{clip-path:url(#SVGID_2_);fill:#6D5C8E;}
	.st10{clip-path:url(#SVGID_2_);fill:#2B1F58;}
	.st11{clip-path:url(#SVGID_2_);fill:#FCEDED;stroke:#B47B7B;stroke-miterlimit:10;}
</style>
<g>
	<defs>
		<circle id="SVGID_1_" cx="156" cy="156" r="156"/>
	</defs>
	<clipPath id="SVGID_2_">
		<use xlink:href="#SVGID_1_"  style="overflow:visible;"/>
	</clipPath>
	<path class="st0" d="M106.3,267.5c-0.1-0.1-0.3-0.1-0.4-0.2c-6.5-2.9-12.7-6.4-18.5-10.4c-0.1-0.1-0.2-0.1-0.2-0.2
		c-1.9-1.3-3.8-2.7-5.7-4.1c-9.1-7-17.2-15.3-24-24.6c-1.4-1.9-2.7-3.8-4-5.8c-0.1-0.1-0.1-0.2-0.2-0.2c-3.8-5.9-7.1-12.2-9.9-18.8
		c-0.1-0.1-0.1-0.3-0.2-0.4c16-17.5,48-17.6,64.1-0.1C125.2,219.2,124.6,251.4,106.3,267.5z"/>
	<path class="st0" d="M43.9,107.8c2.4-5.5,5.1-10.8,8.2-15.8c2.2-3.5,4.6-7,7.1-10.3c1.9-2.5,3.9-4.9,6-7.2c1.6-1.8,3.3-3.5,5-5.2
		c2.2-2.2,4.5-4.3,6.9-6.3c3.2-2.7,6.6-5.3,10.1-7.7c3-2.1,6.2-4,9.4-5.8c0.2,0.2,0.4,0.3,0.7,0.5c5.5-7.2,14.9,2.4,7.6,7.7
		c1.6,2.2,2.9,4.5,4,6.9c5.1-2.7,10.6,3.7,7.1,8.2c-1.1,1.3-2.6,2.1-4.3,2.3c0.3,2.9,0.3,5.7-0.1,8.6c6.4,0.5,7.1,9.9,0.7,11
		c-1.2,0.2-2.5,0-3.7-0.5c-1.1,2.4-2.4,4.7-4,6.8c6,4,0.3,13.2-5.9,9.4c-0.7-0.5-1.3-1-1.8-1.7c-2.2,1.6-4.5,2.9-6.9,4
		c0.4,0.8,0.5,1.6,0.6,2.5c0.1,7.3-10.6,7.5-11.1,0.3c-2.8,0.3-5.7,0.3-8.6,0c-0.2,1.6-1,3.2-2.3,4.2c-4.6,3.5-10.9-2.2-8.1-7.2
		c-2.4-1.1-4.7-2.5-6.9-4C51.2,112.1,45.7,111.2,43.9,107.8z"/>
	<circle class="st0" cx="135.7" cy="83.4" r="4.2"/>
	<path class="st0" d="M136.1,99.6c-2.3,0-4.2-1.9-4.2-4.2s1.9-4.2,4.2-4.2s4.2,1.9,4.2,4.2S138.4,99.6,136.1,99.6z"/>
	<path class="st0" d="M132.8,71c0-2.3,1.9-4.2,4.2-4.2c2.3,0,4.2,1.9,4.2,4.2c0,2.3-1.9,4.2-4.2,4.2C134.6,75.2,132.8,73.4,132.8,71
		z"/>
	<path class="st0" d="M134,107.4c0-2.3,1.9-4.2,4.2-4.2c2.3,0,4.2,1.9,4.2,4.2s-1.9,4.2-4.2,4.2C135.8,111.6,134,109.7,134,107.4z"
		/>
	<path class="st0" d="M137,57.5c2.8-8.3,6.6-16.3,11.8-23.3c2.4-0.1,4.8-0.2,7.2-0.2c0.6,0,1.3,0,1.9,0c0.8,0.2,1.1,0.5,0.4,1.1
		c-5,7.9-9.9,16.2-12.9,25.2C143.2,66.6,134.7,63.3,137,57.5z"/>
	<path class="st0" d="M161.3,199.4c-4.2-1.9-8.5-3.8-12.7-5.8c-1.6-0.8-1.7-2.5-0.2-3.6c1.8-1.2,4.6-2,2.5-4.6
		c-23.9-36.5-73.7-50-111.8-27.7c-1.3,0.8-3.6,2-5,2.4c-0.1-3.3-0.1-6.5,0.1-9.8c41.3-22.7,99.4-9.4,124.2,30.8
		c1.2,1.8,2.2,2.3,4.2,1.3c3.2-1.6,4.4-0.7,3.9,2.8c-0.5,4.2-1.2,8.3-2,12.5C164.3,199.2,163.2,200.2,161.3,199.4z"/>
	<path class="st0" d="M168,262.7c-0.1,0.4-2.3,7.5-7.4,15.2c-1.5,0.1-3.1,0.1-4.6,0.1c-2.2,0-4.3-0.1-6.5-0.2
		c6.8-8.2,9.8-17.7,9.9-17.8c0.7-2.4,3.2-3.7,5.6-3C167.4,257.8,168.7,260.3,168,262.7z"/>
	<circle class="st0" cx="165.1" cy="213" r="4.2"/>
	<circle class="st0" cx="167.1" cy="249.9" r="4.2"/>
	<path class="st0" d="M168.3,222.6c2.3,0,4.2,1.9,4.2,4.2c0,2.3-1.9,4.2-4.2,4.2c-2.3,0-4.2-1.9-4.2-4.2
		C164.1,224.5,166,222.6,168.3,222.6z"/>
	<path class="st0" d="M172.8,238.1c0,2.3-1.9,4.2-4.2,4.2s-4.2-1.9-4.2-4.2c0-2.3,1.9-4.2,4.2-4.2S172.8,235.8,172.8,238.1z"/>
	<path class="st0" d="M260.8,200.6c2.5,1.1,4.9,2.5,7.2,4c-1.8,4.1-3.8,8.1-6,12v0c-2.6,4.5-5.5,8.9-8.6,13c-1,1.3-1.9,2.5-3,3.8
		c-0.2,0.3-0.5,0.6-0.7,0.9c-2.7,3.2-5.5,6.3-8.6,9.2c-0.3,0.3-0.7,0.6-1,1c-0.9,0.8-1.7,1.6-2.6,2.4c-2.6,2.3-5.3,4.6-8.1,6.7
		c-0.3,0.2-0.6,0.5-0.9,0.7c-0.3,0.2-0.6,0.5-0.9,0.7c-1,0.7-2,1.4-3,2.1c-0.1,0.1-0.3,0.2-0.5,0.3c-2.6,1.8-5.3,3.4-8.1,5
		c-1.6,0.9-3.2,1.8-4.9,2.6c-0.3,0.2-0.7,0.4-1.1,0.5c-3.6,1.8-7.4,3.4-11.2,4.9c-0.8,0.3-1.5,0.6-2.3,0.8c0.8-0.3,1.5-0.6,2.3-0.8
		c-1.1-1.8-2.1-3.7-2.9-5.7c-3,1.4-6.9,0.9-9.1-1.7c-4.2-4.5-0.7-12.1,5.3-12.4c-0.4-3.8-0.4-7.7,0.1-11.5c-12-1.6-7.1-18.9,3.9-14
		c1.5-3.2,3.3-6.3,5.4-9.2c-3.8-2.5-4.6-8.4-1.2-11.6c3.2-3.4,9.1-2.5,11.6,1.4c2.9-2.1,6-3.9,9.2-5.3c-2-4.1,0.1-9.6,4.7-10.7
		c4.5-1.4,9.1,2.4,9.4,6.9c3.8-0.4,7.7-0.4,11.5,0.1C248.4,184.6,265.7,189.5,260.8,200.6z"/>
	<path class="st0" d="M168.7,71.5c-9.7-0.7-12.3-14.2-3.2-18c2.6-1.1,5.6-0.8,8.1,0.3c9.4-18.8,7.2-5.3,2.7-18.2
		c4.5,0.7,8.8,1.7,13.1,3c0.5,0.1,1,0.3,1.5,0.5c0.6,0.2,1.1,0.3,1.7,0.5c3.5,1.1,6.8,2.3,10.2,3.7c7.4,3.1,14.5,6.9,21.1,11.3
		c2.4,1.6,4.8,3.4,7.1,5.2c0.6,0.5,1.2,1,1.8,1.5c0.5,0.4,1,0.8,1.5,1.2c0.5,0.4,1,0.8,1.5,1.3c4.6,3.9,8.8,8.2,12.7,12.8
		c2,2.3,4,4.8,5.8,7.3h0c4.7,6.4,8.8,13.3,12.2,20.6v0c4.2,9,7.3,18.5,9.2,28.6c-3.8,0.9-7.9-1-10.1-4.2c-3.6,2.6-7.5,4.9-11.6,6.7
		c5.8,14.1-15.8,19.8-17.7,4.7c-23,1.5-8.7-3.8-18.4,7c-7.9,5.9-18.2-3.5-13.7-12.1c-4.1-1.8-8-4.1-11.5-6.8c-2.4,3.4-7,5.2-11,3.8
		c-7.4-2.3-8.3-12.8-1.9-16.8c-2.6-3.6-4.9-7.5-6.7-11.6c-8.7,4.4-17.9-6-11.9-13.9C172.4,80.3,166.8,94.3,168.7,71.5z"/>
	<path class="st0" d="M278,156c0,2.2-0.1,4.4-0.2,6.6c-0.6,0.3-1.4,0.8-2.2,1.5c-34.1,22.1-81.9,19-112-8.7
		c-6.2-5.5-11.6-11.8-16-18.9c-1-1.5-2.2-2.2-4-1.1c-2.7,1.7-5.2,0.1-4.1-3.2c0.6-4,1.3-8,1.8-12c0.3-2.4,2.1-2.1,3.3-1.6
		c4.3,1.7,8.5,3.7,12.7,5.8c1.9,1,1.8,2.4-0.1,3.6c-3.5,2.3-3.5,2.3-1.1,5.7c16.8,25.3,48.4,39.7,78.5,35.9
		c8.9-1.1,17.6-3.4,25.7-7.1c6.1-2.9,12.3-6.7,17.6-10.8C278,153.1,278,154.6,278,156z"/>
	<path class="st0" d="M53.2,221.6l0,0.5c8.9,13,45.9,42.2,52.6,45.2c0,0,0.1,0,0.1-0.1h0c18.3-15.8,18.9-48,1.2-64.5
		c-16-17.3-47.8-17.2-63.6,0.3c0,0,0,0,0,0L53.2,221.6z"/>
	<path class="st0" d="M250.4,233.4c-0.2,0.3-0.5,0.6-0.7,0.9c-6,7.1-12.9,13.5-20.3,19.1c-0.3,0.2-0.6,0.5-0.9,0.7
		c-1.9-2.5-3-5.6-3-9C225.1,232.5,241.2,225.2,250.4,233.4z"/>
	<path class="st0" d="M163.5,155.5c-6.2-5.5-11.6-11.8-16-18.9c-1-1.5-2.2-2.2-4-1.1c-2.7,1.7-5.2,0.1-4.1-3.2c0.6-4,1.3-8,1.8-12
		c0.3-2.4,2.1-2.1,3.3-1.6c4.3,1.7,8.5,3.7,12.7,5.8c1.9,1,1.8,2.4-0.1,3.6c-3.5,2.3-3.5,2.3-1.1,5.7c16.8,25.3,48.4,39.7,78.5,35.9
		c8.9-1.1,17.6-3.4,25.7-7.1c6.1-2.9,12.3-6.7,17.6-10.8c-0.2-6.4-0.9-12.7-2.1-18.7c-3.8,0.9-7.9-1-10.1-4.2
		c-3.6,2.6-7.5,4.9-11.6,6.7c5.8,14.1-15.8,19.8-17.7,4.7c-23,1.5-8.7-3.8-18.4,7c-7.9,5.9-18.2-3.5-13.7-12.1
		c-4.1-1.8-8-4.1-11.5-6.8c-2.4,3.4-7,5.2-11,3.8c-7.4-2.3-8.3-12.8-1.9-16.8c-2.6-3.6-4.9-7.5-6.7-11.6c-8.7,4.4-17.9-6-11.9-13.9
		c11-9.5,5.4,4.5,7.3-18.3c-9.7-0.7-12.3-14.2-3.2-18c2.6-1.1,5.6-0.8,8.1,0.3c9.4-18.8,7.2-5.3,2.7-18.2c-6-1-12.1-1.6-18.4-1.7
		c0.8,0.2,1.1,0.5,0.4,1.1c-5,7.9-9.9,16.2-12.9,25.2c-2.1,6.4-10.6,3-8.3-2.7c2.8-8.3,6.6-16.3,11.8-23.3
		c-18.9,1.1-36.6,6.5-52.2,15.2c0.2,0.2,0.4,0.3,0.7,0.5c5.5-7.2,14.9,2.4,7.6,7.7c1.6,2.2,2.9,4.5,4,6.9c5.1-2.7,10.6,3.7,7.1,8.2
		c-1.1,1.3-2.6,2.1-4.3,2.3c0.3,2.9,0.3,5.7-0.1,8.6c6.4,0.5,7.1,9.9,0.7,11c-1.2,0.2-2.5,0-3.7-0.5c-1.1,2.4-2.4,4.7-4,6.8
		c6,4,0.3,13.2-5.9,9.4c-0.7-0.5-1.3-1-1.8-1.7c-2.2,1.6-4.5,2.9-6.9,4c0.4,0.8,0.5,1.6,0.6,2.5c0.1,7.3-10.6,7.5-11.1,0.3
		c-2.8,0.3-5.7,0.3-8.6,0c-0.2,1.6-1,3.2-2.3,4.2c-4.6,3.5-10.9-2.2-8.1-7.2c-2.4-1.1-4.7-2.5-6.9-4c-2.4,3.8-7.9,2.9-9.7-0.5
		c-3.5,8.1-6.1,16.6-7.8,25.5c0,0.1,0,0.2-0.1,0.3c-0.1,0.6-0.2,1.2-0.3,1.8c-0.8,4.9-1.3,9.8-1.5,14.8
		c41.3-22.7,99.4-9.4,124.2,30.8c1.2,1.8,2.2,2.3,4.2,1.3c3.2-1.6,4.4-0.7,3.9,2.8c-0.5,4.2-1.2,8.3-2,12.5
		c-0.3,1.7-1.4,2.7-3.3,1.9c-4.2-1.9-8.5-3.8-12.7-5.8c-1.6-0.8-1.7-2.5-0.2-3.6c1.8-1.2,4.6-2,2.5-4.6
		c-23.9-36.5-73.7-50-111.8-27.7c-1.3,0.8-3.6,2-5,2.4c0.2,7.5,1.2,15,2.8,22.3c0.9,0.7,1.7,1.5,2.4,2.4c3.6-2.6,7.5-4.9,11.6-6.7
		c-4.4-8.7,6-17.9,13.9-11.9c9.5,10.9-4.5,5.4,18.3,7.3c0.4-5.7,6.3-10.3,11.9-8.5c5.8,1.4,8.4,8.4,5.7,13.5c4.1,1.8,8,4.1,11.5,6.8
		c5.3-8.1,18.5-3.6,17.2,6.1c-4.6,13.4-7-0.8,2.4,18.5c5.1-2.6,12.1,0.1,13.4,5.9c1.8,5.7-3,11.5-8.7,11.8c0.5,4.8,0.5,9.7-0.1,14.5
		c1.4,0.2,2.8,0.6,4,1.3c10.7,6.2,1.9,21.7-9,16.4c-1.8,4.1-4.1,8-6.8,11.5c1.3,0.9,2.3,2.1,3,3.4c7.1,1.7,14.4,2.8,21.9,3.2
		c6.8-8.2,9.8-17.7,9.9-17.8c0.7-2.4,3.2-3.7,5.6-3c2.4,0.7,3.7,3.2,3,5.6c-0.1,0.4-2.3,7.5-7.4,15.2c12-0.4,23.6-2.6,34.5-6.3
		c0.5-0.2,1-0.3,1.5-0.5c0.8-0.3,1.5-0.6,2.3-0.8c-1.1-1.8-2.1-3.7-2.9-5.7c-3,1.4-6.9,0.9-9.1-1.7c-4.2-4.5-0.7-12.1,5.3-12.4
		c-0.4-3.8-0.4-7.7,0.1-11.5c-12-1.6-7.1-18.9,3.9-14c1.5-3.2,3.3-6.3,5.4-9.2c-3.8-2.5-4.6-8.4-1.2-11.6c3.2-3.4,9.1-2.5,11.6,1.4
		c2.9-2.1,6-3.9,9.2-5.3c-2-4.1,0.1-9.6,4.7-10.7c4.5-1.4,9.1,2.4,9.4,6.9c3.8-0.4,7.7-0.4,11.5,0.1c1.6-12,18.9-7.1,14,3.9
		c2.5,1.1,4.9,2.5,7.2,4c5.6-13,9.1-27.1,9.9-41.9c-0.6,0.3-1.4,0.8-2.2,1.5C241.5,186.3,193.7,183.1,163.5,155.5z M137,66.8
		c2.3,0,4.2,1.9,4.2,4.2c0,2.3-1.9,4.2-4.2,4.2c-2.3,0-4.2-1.9-4.2-4.2C132.8,68.7,134.6,66.8,137,66.8z M135.7,79.2
		c2.3,0,4.2,1.9,4.2,4.2s-1.9,4.2-4.2,4.2s-4.2-1.9-4.2-4.2S133.4,79.2,135.7,79.2z M131.9,95.4c0-2.3,1.9-4.2,4.2-4.2
		s4.2,1.9,4.2,4.2s-1.9,4.2-4.2,4.2S131.9,97.7,131.9,95.4z M134,107.4c0-2.3,1.9-4.2,4.2-4.2c2.3,0,4.2,1.9,4.2,4.2
		s-1.9,4.2-4.2,4.2C135.8,111.6,134,109.7,134,107.4z M172.5,226.8c0,2.3-1.9,4.2-4.2,4.2c-2.3,0-4.2-1.9-4.2-4.2
		c0-2.3,1.9-4.2,4.2-4.2C170.6,222.6,172.5,224.5,172.5,226.8z M160.9,213c0-2.3,1.9-4.2,4.2-4.2c2.3,0,4.2,1.9,4.2,4.2
		s-1.9,4.2-4.2,4.2C162.8,217.2,160.9,215.3,160.9,213z M167.1,254.1c-2.3,0-4.2-1.9-4.2-4.2s1.9-4.2,4.2-4.2s4.2,1.9,4.2,4.2
		S169.4,254.1,167.1,254.1z M168.6,242.3c-2.3,0-4.2-1.9-4.2-4.2c0-2.3,1.9-4.2,4.2-4.2s4.2,1.9,4.2,4.2
		C172.8,240.4,170.9,242.3,168.6,242.3z"/>
	<circle class="st0" cx="135.7" cy="83.4" r="4.2"/>
	<path class="st0" d="M136.1,99.6c-2.3,0-4.2-1.9-4.2-4.2s1.9-4.2,4.2-4.2s4.2,1.9,4.2,4.2S138.4,99.6,136.1,99.6z"/>
	<path class="st0" d="M141.2,71c0,2.3-1.9,4.2-4.2,4.2c-2.3,0-4.2-1.9-4.2-4.2c0-2.3,1.9-4.2,4.2-4.2
		C139.3,66.8,141.2,68.7,141.2,71z"/>
	<path class="st0" d="M134,107.4c0-2.3,1.9-4.2,4.2-4.2c2.3,0,4.2,1.9,4.2,4.2s-1.9,4.2-4.2,4.2C135.8,111.6,134,109.7,134,107.4z"
		/>
	<path class="st0" d="M39.2,157.7c-1.3,0.8-3.6,2-5,2.4c-0.1-3.3-0.1-6.5,0.1-9.8c41.3-22.7,99.4-9.4,124.2,30.8
		c1.2,1.8,2.2,2.3,4.2,1.3c3.2-1.6,4.4-0.7,3.9,2.8c-0.5,4.2-1.2,8.3-2,12.5c-0.3,1.7-1.4,2.7-3.3,1.9c-4.2-1.9-8.5-3.8-12.7-5.8
		c-1.6-0.8-1.7-2.5-0.2-3.6c1.8-1.2,4.6-2,2.5-4.6C127.1,148.9,77.3,135.4,39.2,157.7z"/>
	<path class="st0" d="M160.6,277.9c12-0.4,23.6-2.6,34.5-6.3c-11.1,3.8-22.7,6.1-34.6,6.5c-3.7,0.2-7.4,0.1-11.2-0.1
		c-12.7-0.7-25.6-3.4-38.3-8.5c5.4,2.1,11,3.9,16.7,5.3c0-0.1-0.1-0.1-0.1-0.2c7.1,1.7,14.4,2.8,21.9,3.2c6.8-8.2,9.8-17.7,9.9-17.8
		c0.7-2.4,3.2-3.7,5.6-3c2.4,0.7,3.7,3.2,3,5.6C167.9,263.1,165.7,270.2,160.6,277.9z"/>
	<circle class="st0" cx="165.1" cy="213" r="4.2"/>
	<circle class="st0" cx="167.1" cy="249.9" r="4.2"/>
	<circle class="st0" cx="168.3" cy="226.8" r="4.2"/>
	<circle class="st0" cx="168.6" cy="238.1" r="4.2"/>
	<path class="st0" d="M278.1,156c0,2.2,0,4.4-0.2,6.5c-1.2,24.2-9.3,46-22.2,64c-0.3,0.4-0.5,0.8-0.8,1.1c-0.3,0.5-0.7,1-1.1,1.4
		c-0.1,0.2-0.3,0.4-0.4,0.6c0,0-0.1,0-0.1-0.1c-0.6-0.5-1.3-1-2-1.5c-0.4-0.3-0.8-0.5-1.3-0.7c-0.8-0.4-1.6-0.8-2.5-1.1
		c-0.3-0.1-0.5-0.2-0.8-0.3c-0.3-0.1-0.5-0.2-0.8-0.2c-0.5-0.2-1.1-0.3-1.7-0.4c-0.1,0-0.2,0-0.3,0c-0.4-0.1-0.8-0.1-1.2-0.2
		c-0.7-0.1-1.3-0.1-2-0.1c-4.5,0-8.6,1.5-12,4c-0.2,0.1-0.4,0.3-0.5,0.4c-4.6,3.9-7.4,9.8-7.5,15.8c0.4,5.8,1.9,8.5,2.8,10
		c0,0.1,0.1,0.1,0.1,0.2c0.3,0.4,0.6,0.9,0.9,1.3c-0.1,0.1-0.3,0.2-0.4,0.3c-4.2,2.8-8.5,5.4-13,7.7c-0.3,0.2-0.6,0.3-0.9,0.4
		c0,0,0,0,0,0c-3.7,1.9-7.5,3.5-11.3,5c-1.1-1.8-2.1-3.7-2.9-5.7c-3,1.4-6.9,0.9-9.1-1.7c-4.2-4.5-0.7-12.1,5.3-12.4
		c-0.4-3.8-0.4-7.7,0.1-11.5c-12-1.6-7.1-18.9,3.9-14c1.5-3.2,3.3-6.3,5.4-9.2c-3.8-2.5-4.6-8.4-1.2-11.6c3.2-3.4,9.1-2.5,11.6,1.4
		c2.9-2.1,6-3.9,9.2-5.3c-2-4.1,0.1-9.6,4.7-10.7c4.5-1.4,9.1,2.4,9.4,6.9c3.8-0.4,7.7-0.4,11.5,0.1c1.6-12,18.9-7.1,14,3.9
		c2.5,1.1,4.9,2.5,7.2,4c5.6-13,9.1-27.1,9.9-41.9c-0.6,0.3-1.4,0.8-2.2,1.5c-34.1,22.1-81.9,19-112-8.7c-6.2-5.5-11.6-11.8-16-18.9
		c-1-1.5-2.2-2.2-4-1.1c-2.7,1.7-5.2,0.1-4.1-3.2c0.6-4,1.3-8,1.8-12c0.3-2.4,2.1-2.1,3.3-1.6c4.3,1.7,8.5,3.7,12.7,5.8
		c1.9,1,1.8,2.4-0.1,3.6c-3.5,2.3-3.5,2.3-1.1,5.7c16.8,25.3,48.4,39.7,78.5,35.9c8.9-1.1,17.6-3.4,25.7-7.1
		c6.1-2.9,12.3-6.7,17.6-10.8c-0.2-6.4-0.9-12.7-2.1-18.7c-3.8,0.9-7.9-1-10.1-4.2c-3.6,2.6-7.5,4.9-11.6,6.7
		c5.8,14.1-15.8,19.8-17.7,4.7c-23,1.5-8.7-3.8-18.4,7c-7.9,5.9-18.2-3.5-13.7-12.1c-4.1-1.8-8-4.1-11.5-6.8c-2.4,3.4-7,5.2-11,3.8
		c-7.4-2.3-8.3-12.8-1.9-16.8c-2.6-3.6-4.9-7.5-6.7-11.6c-8.7,4.4-17.9-6-11.9-13.9c11-9.5,5.4,4.5,7.3-18.3
		c-9.7-0.7-12.3-14.2-3.2-18c2.6-1.1,5.6-0.8,8.1,0.3c9.4-18.8,7.2-5.3,2.7-18.2c-6-1-12.1-1.6-18.4-1.7c0.8,0.2,1.1,0.5,0.4,1.1
		c-5,7.9-9.9,16.2-12.9,25.2c-2.1,6.4-10.6,3-8.3-2.7c2.8-8.3,6.6-16.3,11.8-23.3c-18.9,1.1-36.6,6.5-52.2,15.2
		c0.2,0.2,0.4,0.3,0.7,0.5c5.5-7.2,14.9,2.4,7.6,7.7c1.6,2.2,2.9,4.5,4,6.9c5.1-2.7,10.6,3.7,7.1,8.2c-1.1,1.3-2.6,2.1-4.3,2.3
		c0.3,2.9,0.3,5.7-0.1,8.6c6.4,0.5,7.1,9.9,0.7,11c-1.2,0.2-2.5,0-3.7-0.5c-1.1,2.4-2.4,4.7-4,6.8c6,4,0.3,13.2-5.9,9.4
		c-0.7-0.5-1.3-1-1.8-1.7c-2.2,1.6-4.5,2.9-6.9,4c0.4,0.8,0.5,1.6,0.6,2.5c0.1,7.3-10.6,7.5-11.1,0.3c-2.8,0.3-5.7,0.3-8.6,0
		c-0.2,1.6-1,3.2-2.3,4.2c-4.6,3.5-10.9-2.2-8.1-7.2c-2.4-1.1-4.7-2.5-6.9-4c-2.4,3.8-7.9,2.9-9.7-0.5c-3.5,8.1-6.1,16.6-7.8,25.5
		c1.6-8.8,4.2-17.4,7.7-25.7c2.3-5.5,5-10.8,8.2-15.9c2.2-3.6,4.6-7,7.2-10.4c2.1-2.7,4.2-5.3,6.5-7.8c1.2-1.3,2.4-2.6,3.7-3.8
		c2.4-2.4,4.8-4.6,7.5-6.8c3.2-2.7,6.6-5.3,10.2-7.7c3-2,6.1-4,9.4-5.8c17-9.5,34.9-14.4,52.6-15.4c0.1,0,0.2,0,0.4,0
		c9.1-0.5,18.1,0.1,26.9,1.6c4.5,0.8,8.9,1.8,13.2,3.1c0.5,0.1,1,0.3,1.5,0.5c0.6,0.2,1.1,0.3,1.7,0.5c3.4,1.1,6.8,2.3,10.1,3.7
		c7.4,3.1,14.5,6.9,21.1,11.3c2.5,1.6,4.9,3.4,7.2,5.2v0c0.6,0.5,1.2,1,1.8,1.4c0.5,0.4,1,0.8,1.5,1.2c0.5,0.4,1,0.8,1.5,1.3
		c4.5,3.9,8.8,8.1,12.7,12.6c0.7,0.8,1.5,1.7,2.2,2.5c0.6,0.7,1.1,1.4,1.7,2.1c0.3,0.3,0.5,0.7,0.8,1c0.4,0.5,0.8,1.1,1.2,1.7
		c0.1,0.1,0.2,0.2,0.3,0.4c13.8,18.7,22.6,41.8,23.4,67.6C278.1,153.1,278.1,154.5,278.1,156z"/>
	<path class="st1" d="M111.6,83.6c0.4-2.8,0.4-5.7,0.1-8.6c1.7-0.1,3.2-1,4.3-2.3c3.6-4.6-2-10.9-7.1-8.2c-1.1-2.4-2.4-4.7-4-6.9
		c7.2-5.3-2.2-14.9-7.6-7.7c-0.2-0.2-0.5-0.3-0.7-0.5c-0.1,0-0.1-0.1-0.1-0.1c-1.9-1.3-3.9-2.5-6-3.5c1.3-2.6,0.5-6.1-2.2-7.5
		c-3.5-2-8,0.6-8.3,4.6c-2.9-0.3-5.7-0.4-8.6,0c-1-8.9-14-5.5-10.5,2.8c-2.4,1.1-4.8,2.4-6.9,4c-3-4.8-11-2.2-10.2,3.5
		c0.2,1.7,1.1,3.1,2.5,4.1c-1.6,2.1-3,4.4-4,6.8c-1.5-0.7-3.3-0.8-4.8-0.2C32,66,33.6,74.3,39.3,74.6c-0.4,2.8-0.4,5.7-0.1,8.6
		c-1.7,0.1-3.2,1-4.2,2.3c-3.6,4.5,2,10.9,7.1,8.2c1.1,2.4,2.4,4.8,4,6.9c-1.3,1-2.3,2.4-2.6,4.1c-0.2,1.1,0,2.1,0.4,3
		c0,0.1,0.1,0.1,0.1,0.2c1.8,3.4,7.3,4.3,9.7,0.5c2.1,1.6,4.4,3,6.9,4c-2.7,5,3.5,10.7,8.1,7.2c1.3-1,2.1-2.6,2.3-4.2
		c2.8,0.3,5.7,0.4,8.6,0c0.5,7.2,11.2,7,11.1-0.3c0-0.9-0.2-1.7-0.6-2.5c2.4-1.1,4.8-2.4,6.9-4c0.5,0.7,1.1,1.3,1.8,1.7
		c6.2,3.8,11.8-5.3,5.9-9.4c1.6-2.1,3-4.4,4-6.8c1.1,0.5,2.4,0.7,3.7,0.5C118.7,93.5,118,84.1,111.6,83.6z"/>
	<path class="st2" d="M94.2,60.3C72.5,39,37.8,65,52.1,91.8c6.5,12.6,23.7,17.7,36,10.7C103.3,94.9,106.8,72,94.2,60.3z M75.3,95.3
		c-9,0-16.2-7.3-16.2-16.2c0-9,7.3-16.2,16.2-16.2c9,0,16.2,7.3,16.2,16.2C91.6,88,84.3,95.3,75.3,95.3z"/>
	<path class="st3" d="M267.9,204.6c-2.3-1.5-4.7-2.9-7.2-4c4.9-11-12.4-15.9-14-3.9c-3.8-0.5-7.7-0.5-11.5-0.1
		c-0.3-4.5-4.9-8.3-9.4-6.9c-4.6,1.1-6.7,6.6-4.7,10.7c-3.3,1.4-6.4,3.2-9.2,5.3c-2.5-3.8-8.3-4.8-11.6-1.4c-3.4,3.2-2.6,9,1.2,11.6
		c-2.1,2.8-4,5.9-5.4,9.2c-11-4.9-15.9,12.4-3.9,14c-0.5,3.8-0.5,7.7-0.1,11.5c-6,0.2-9.5,7.9-5.3,12.4c2.2,2.6,6.1,3.1,9.1,1.7
		c0.9,2,1.8,3.9,2.9,5.7l0,0c0,0,0,0.1,0.1,0.1c6.8-2.6,10-3.8,11.1-5c0,0,0.1-0.1,0.1-0.1c0,0,0,0,0,0c0.3-0.4,0.4-0.8,0.4-1.2v0
		c-0.2-1.1-1.4-2.5-2.7-5.1c0-0.1-0.1-0.1-0.1-0.2l0,0c-0.7-1.5-1.4-3.5-1.9-6c0,0,0,0,0,0c0,0,0,0,0-0.1c0,0,0,0,0,0
		c-0.4-2.1-0.7-4.5-0.7-7.5c0-1.5,0-3,0.2-4.4c0-0.2,0.1-0.4,0.1-0.6c0-0.1,0-0.2,0-0.2c1.4-10.1,7.3-18.6,15.3-24
		c0.1-0.1,0.2-0.2,0.4-0.2c7.1-4.7,15.7-7,24.2-5.9c0.3,0,0.6,0.1,0.9,0.1c3.9,0.6,7.8,1.9,11.5,4c0.6,0.3,1.1,0.6,1.7,1
		c0.3,0.2,0.7,0.4,1,0.6c0,0,0,0,0,0c0.1,0,0.1,0.1,0.2,0.1c0,0,0.1,0.1,0.2,0.1c0.2,0.1,0.4,0.3,0.6,0.4c0.2,0.1,0.4,0.3,0.6,0.4
		c0,0,0.1,0,0.1,0.1c2.2-3.9,4.2-7.8,6-12C268,204.6,268,204.6,267.9,204.6z"/>
	<path class="st4" d="M261.3,216.1c-0.2-0.1-0.4-0.3-0.6-0.4c0,0-0.1-0.1-0.2-0.1c-0.1,0-0.1-0.1-0.2-0.1c-0.3-0.2-0.7-0.4-1-0.6
		c-4.4-2.7-8.8-4.3-13.2-5c-9.3-1.5-18.3,1-25.5,6c-8,5.6-13.7,14.2-15.3,24c0,0.1,0,0.2,0,0.2c-0.6,4-0.5,8.2,0.4,12.5
		c0,0,0,0.1,0,0.1c0.5,2,1.1,4,2,6c0.8,1.8,1.7,3.6,2.8,5.3c0.2,0.3,0.3,0.5,0.5,0.8c0,0.1,0.1,0.1,0.1,0.2
		c9.8-5.7,12.7-6.6,12.9-7.9c0.1-0.4-0.2-0.9-0.5-1.6c0-0.1-0.1-0.1-0.1-0.2c-0.9-1.6-2.3-4.3-2.8-10c0-0.1,0-0.1,0-0.2
		c0-6.3,2.9-11.9,7.5-15.6c0.2-0.2,0.4-0.3,0.5-0.4c3.3-2.5,7.5-4,12-4c4.8,0,9.3,1.7,12.7,4.6c0.1-0.2,0.3-0.4,0.4-0.6
		c0.4-0.5,0.7-1,1.1-1.4c0.3-0.4,0.5-0.8,0.8-1.1c2.3-3.2,4.4-6.5,6.3-9.9C261.8,216.4,261.6,216.3,261.3,216.1z"/>
	<path class="st5" d="M250.4,233.4c-9.2-8.2-25.3-0.9-24.9,11.7c0,3.4,1.1,6.5,3,9c-0.3,0.2-0.6,0.5-0.9,0.7c0,0,0.1,0.1,0.1,0.2
		c0.3-0.2,0.6-0.5,0.9-0.7c0.3-0.2,0.6-0.5,0.9-0.7c0,0-0.1-0.1-0.1-0.1c-1.7-2.3-2.7-5.2-2.7-8.3c0-7.8,6.3-14.1,14-14.1
		c3.4,0,6.5,1.2,9,3.2c0,0,0,0,0,0c0.5-0.4,0.8-0.7,0.9-1.1c0,0,0-0.1,0-0.1C250.6,233.2,250.5,233.3,250.4,233.4z"/>
	<path class="st3" d="M250.7,233.1c-0.1,0.1-0.1,0.2-0.2,0.3c0,0,0,0,0,0c0.1-0.1,0.1-0.1,0.2-0.2c1-1.2,1.9-2.4,2.8-3.6
		C252.5,230.8,251.6,232,250.7,233.1z M240.7,225.1c-4.6-0.2-8.7,1.4-12,4C232.1,226.6,236.2,225.1,240.7,225.1z M227.6,254.7
		c-1,0.7-2,1.4-3,2.1c0,0,0.1,0.1,0.1,0.2c1-0.7,2-1.4,3-2.1c0.3-0.2,0.6-0.5,0.9-0.7c0-0.1-0.1-0.1-0.1-0.2
		C228.2,254.3,227.9,254.5,227.6,254.7z M223.5,255.3c-0.9-1.6-2.3-4.3-2.8-10C220.7,248.7,221.6,252.2,223.5,255.3z"/>
	<path class="st3" d="M253.4,229.6c-0.9,1.2-1.8,2.3-2.8,3.5c-0.1,0.1-0.1,0.2-0.2,0.3c-9.2-8.2-25.3-0.9-24.9,11.7
		c0,3.4,1.1,6.5,3,9c-0.3,0.2-0.6,0.5-0.9,0.7c-1,0.7-2,1.4-3,2.1c-0.3-0.4-0.6-0.9-0.9-1.3c0-0.1-0.1-0.1-0.1-0.2
		c-0.9-1.6-2.3-4.3-2.8-10c0.1-6,2.9-11.9,7.5-15.8c0.2-0.2,0.4-0.3,0.5-0.4c3.3-2.5,7.5-4,12-4C245.6,225.1,250,226.8,253.4,229.6z
		"/>
	<path class="st6" d="M87.4,256.9c8-4.3,13.4-12.7,13.4-22.4c0-14-11.4-25.4-25.4-25.4c-9.4,0-17.7,5.1-22.1,12.8
		c-3.7-5.8-7-12.2-10-19.2c16-17.5,48-17.6,64.1-0.1c17.8,16.6,17.3,48.9-1,64.9C101.3,265.4,94.6,261.4,87.4,256.9z"/>
	<path class="st7" d="M266.7,104.3c0,0-0.1,0.1-0.1,0.1v0c-8.1,11.8-21.6,19.5-37,19.5c-2.2,0-4.3-0.1-6.3-0.4
		c-6.5-0.8-12.2-3-17.2-6.1c0,0-0.1,0-0.1-0.1c-15.7-10-23.6-29.6-20.1-47.6c0,0,0,0,0-0.1c1.9-10,7.3-19.4,16.9-26.3c0,0,0,0,0,0
		c0,0,0.1-0.1,0.1-0.1c-8.4-3.5-17.4-6.1-26.7-7.7c0,0,0,0,0,0c0,0,0,0.1,0,0.1c4.6,12.9,6.7-0.6-2.7,18.2c-2.5-1.2-5.5-1.4-8.1-0.3
		c-9.1,3.7-6.5,17.3,3.2,18c-1.9,22.8,3.7,8.8-7.3,18.3c-6,7.9,3.2,18.3,11.9,13.9c1.8,4.1,4,8,6.7,11.6c-6.4,4-5.5,14.5,1.9,16.8
		c4,1.4,8.6-0.4,11-3.8c3.6,2.7,7.5,5,11.5,6.8c-4.5,8.6,5.8,18,13.7,12.1c9.6-10.8-4.6-5.5,18.4-7c1.9,15.1,23.6,9.4,17.7-4.7
		c4.1-1.8,8-4,11.6-6.7c2.2,3.1,6.2,5.1,10.1,4.2c0,0,0.1,0,0.1,0C274,122.9,270.9,113.3,266.7,104.3z"/>
	<path class="st8" d="M254.4,83.6c-5.7,29.7-49.4,26-49.9-4.5c0-12,8.4-22,19.6-24.5c-6.6-4.5-13.7-8.3-21.2-11.4
		c-10.9,8.2-18,21.2-18,35.9c0,45.2,58.1,61.1,81.8,25.1C263.2,97,259.1,90,254.4,83.6z"/>
	<path class="st7" d="M248.5,76.3c1.8,11.4-7.3,22.1-18.9,22c-25.2-0.6-25.2-37.6,0-38.2c4.8,0.8-4.1-4-5.6-5.4
		c-11.2,2.5-19.6,12.6-19.6,24.5c0,13.9,11.3,25.2,25.2,25.2c12.4,0,22.6-8.9,24.8-20.7C252.5,81.1,250.6,78.6,248.5,76.3z"/>
	<path class="st9" d="M278.1,156c0,2.2,0,4.4-0.2,6.5c0,0-0.1,0.1-0.2,0.1c-0.6,0.3-1.4,0.8-2.2,1.5c-34.1,22.1-81.9,19-112-8.7
		c-6.2-5.5-11.6-11.8-16-18.9c-1-1.5-2.2-2.2-4-1.1c-2.7,1.7-5.2,0.1-4.1-3.2c0.6-4,1.3-8,1.8-12c0.3-2.4,2.1-2.1,3.3-1.6
		c4.3,1.7,8.5,3.7,12.7,5.8c1.9,1,1.8,2.4-0.1,3.6c-3.5,2.3-3.5,2.3-1.1,5.7c16.8,25.3,48.4,39.7,78.5,35.9
		c8.9-1.1,17.6-3.4,25.7-7.1c6.1-2.9,12.3-6.7,17.6-10.8c0,0,0.1-0.1,0.1-0.1C278.1,153.1,278.1,154.5,278.1,156z"/>
	<path class="st9" d="M158.3,35.1c-5,7.9-9.9,16.2-12.9,25.2c-2.1,6.4-10.6,3-8.3-2.7c2.8-8.3,6.6-16.3,11.8-23.3
		c0.1-0.1,0.1-0.2,0.2-0.3c0,0,0,0,0,0c0.1,0,0.2,0,0.3,0c1.7,0.1,6.6-0.3,8.5,0.1C158.7,34.2,159,34.5,158.3,35.1z"/>
	<path class="st10" d="M166.6,185c-0.5,4.2-1.2,8.3-2,12.5c-0.3,1.7-1.4,2.7-3.3,1.9c-4.2-1.9-8.5-3.8-12.7-5.8
		c-1.6-0.8-1.7-2.5-0.2-3.6c1.8-1.2,4.6-2,2.5-4.6c-23.9-36.5-73.7-50-111.8-27.7c-1.3,0.8-3.6,2-5,2.4c-0.1-3.3-0.1-6.5,0.1-9.8
		c41.3-22.7,99.4-9.4,124.2,30.8c1.2,1.8,2.2,2.3,4.2,1.3C165.8,180.7,167.1,181.5,166.6,185z"/>
	<path class="st10" d="M131.4,259.7c-1.8,4.1-4.1,8-6.8,11.5c1.3,0.9,2.3,2.1,3,3.4c-7.4-1.8-14.5-4.2-21.3-7.2
		c18.3-16,18.8-48.3,1-64.9c-16.1-17.5-48.1-17.3-64.1,0.1l-6.4-20.3c0.9,0.7,1.7,1.5,2.4,2.4c3.6-2.6,7.5-4.9,11.6-6.7
		c-4.4-8.7,6-17.9,13.9-11.9c9.5,10.9-4.5,5.4,18.3,7.3c0.4-5.7,6.3-10.3,11.9-8.5c5.8,1.4,8.4,8.4,5.7,13.5c4.1,1.8,8,4.1,11.5,6.8
		c5.3-8.1,18.5-3.6,17.2,6.1c-4.6,13.4-7-0.8,2.4,18.5c5.1-2.6,12.1,0.1,13.4,5.9c1.8,5.7-3,11.5-8.7,11.8c0.5,4.8,0.5,9.7-0.1,14.5
		c1.4,0.2,2.8,0.6,4,1.3C151.1,249.5,142.4,265.1,131.4,259.7z"/>
	<path class="st9" d="M142.4,107.4c0,2.3-1.9,4.2-4.2,4.2c-2.3,0-4.2-1.9-4.2-4.2s1.9-4.2,4.2-4.2
		C140.5,103.2,142.4,105.1,142.4,107.4z"/>
	<circle class="st9" cx="136.1" cy="95.4" r="4.2"/>
	<circle class="st9" cx="135.7" cy="83.4" r="4.2"/>
	<path class="st9" d="M141.2,71c0,2.3-1.9,4.2-4.2,4.2c-2.3,0-4.2-1.9-4.2-4.2c0-2.3,1.9-4.2,4.2-4.2
		C139.3,66.8,141.2,68.7,141.2,71z"/>
	<circle class="st10" cx="167.1" cy="249.9" r="4.2"/>
	<path class="st10" d="M172.8,238.1c0,2.3-1.9,4.2-4.2,4.2s-4.2-1.9-4.2-4.2c0-2.3,1.9-4.2,4.2-4.2S172.8,235.8,172.8,238.1z"/>
	<circle class="st10" cx="168.3" cy="226.8" r="4.2"/>
	<circle class="st10" cx="165.1" cy="213" r="4.2"/>
	<path class="st10" d="M168,262.7c-0.1,0.4-2.3,7.5-7.4,15.2c0,0.1-0.1,0.2-0.2,0.2c-3.7,0.2-7.4,0.1-11.2-0.1
		c0.1-0.1,0.1-0.2,0.2-0.2c6.8-8.2,9.8-17.7,9.9-17.8c0.7-2.4,3.2-3.7,5.6-3C167.4,257.8,168.7,260.3,168,262.7z"/>
	<circle class="st11" cx="75.4" cy="79.1" r="11.2"/>
	<path class="st10" d="M75.4,208.7c-9.5,0-17.8,5.2-22.3,12.9c1.4,2.3,3,4.5,4.6,6.7c2.6-7.3,9.5-12.6,17.7-12.6
		c10.4,0,18.8,8.4,18.8,18.8c0,8.4-5.5,15.4-13,17.9c2.1,1.7,4.3,3.2,6.5,4.8c8-4.4,13.5-12.9,13.5-22.6
		C101.2,220.3,89.6,208.7,75.4,208.7z"/>
</g>
</svg>
