<?xml version="1.0" encoding="utf-8"?>
<!-- Generator: Adobe Illustrator 25.0.1, SVG Export Plug-In . SVG Version: 6.00 Build 0)  -->
<svg version="1.1" id="Layer_1" xmlns="http://www.w3.org/2000/svg" xmlns:xlink="http://www.w3.org/1999/xlink" x="0px" y="0px"
	 viewBox="0 0 312 312" style="enable-background:new 0 0 312 312;" xml:space="preserve">
<style type="text/css">
	.st0{fill:none;}
	.st1{clip-path:url(#SVGID_2_);}
	.st2{fill:#FAEBEB;}
	.st3{fill:#F8A885;}
	.st4{fill:#7B598A;}
	.st5{fill:#886580;}
	.st6{fill:#F7C0A9;}
	.st7{fill:#333635;}
	.st8{fill:#FFFFFF;}
	.st9{fill:#EB704F;}
	.st10{fill:#A37720;}
	.st11{fill:#CE7E67;}
	.st12{fill:#20140E;}
	.st13{fill:#6D5C8E;}
	.st14{fill:#C05E20;}
	.st15{fill:#CC7B47;}
	.st16{fill:#101213;}
	.st17{fill:#63331A;}
	.st18{fill:#5D3113;}
	.st19{fill:#422A6A;}
	.st20{fill:#264B3F;}
	.st21{fill:#E0E1E3;}
	.st22{fill:#884620;}
	.st23{fill:#2B160F;}
</style>
<path class="st0" d="M280,182c0,68.5-55.5,124-124,124S32,250.5,32,182C32-8.4,87.5,6.3,156,6.3S280,14.2,280,182z"/>
<g>
	<defs>
		<circle id="SVGID_1_" cx="156" cy="156" r="156"/>
	</defs>
	<clipPath id="SVGID_2_">
		<use xlink:href="#SVGID_1_"  style="overflow:visible;"/>
	</clipPath>
	<g class="st1">
		<path class="st2" d="M156,47.1c74.2,0,134.3,60.1,134.3,134.3c-7.1,178.2-261.6,178.1-268.6,0C21.7,107.3,81.8,47.1,156,47.1z"/>
		<g transform="translate(90.91 23.394)">
			<g transform="translate(49.303 54.256)">
				<path class="st3" d="M41.1,66.4c-6.5,1.3-10.4-5.7-11-12.8c-0.5-6.1,1.7-13,9.8-14C41,49.7,41.6,57,41.1,66.4z"/>
				<path class="st3" d="M118.9,66.4c6.5,1.3,10.4-5.7,11-12.8c0.5-6.1-1.7-13-9.8-14C119,49.7,118.4,57,118.9,66.4z"/>
			</g>
			<path class="st4" d="M194.8,191.1C178,261.8,99.7,308.2,28,286.5c2.8-30.8,8.2-78,18.1-85.5c10.2-7.8,11.2-8.1,29.7-12.7
				c7.8-1.9,16.3-3,23.6-6.7c1.6-0.8,3.2-1.8,4.4-3.1c1.4-1.5,2.5-5.6,3.3-9.8c0.7-3.7,1.1-7.5,1.4-11.2c0-0.1,0-0.2,0-0.3
				c0-0.1,0-0.1,0-0.1l21.2,1.1l21.2-1.1c0,0.1,0,0.2,0,0.4c0.3,3.7,0.8,7.5,1.4,11.2c0.8,4.2,1.8,8.3,3.3,9.8c3,3,7.1,4.4,11,5.7
				C175.3,186.7,187,188.7,194.8,191.1z"/>
			<path class="st5" d="M194.8,191.1C177.2,264,99.7,308.2,28,286.5c2.8-30.8,8.2-78,18.1-85.5c10.2-7.8,11.2-8.1,29.7-12.7
				c7.8-1.9,16.3-3,23.6-6.7c0.7-0.4,1.4-0.8,2-1.2c19.5,7,40,6.5,56.7,0.1c5.6,3.4,12.2,4.8,18.5,6.2
				C182.5,187.9,190.3,189.9,194.8,191.1z"/>
			<path class="st3" d="M129.7,165.9L129.7,165.9c24.7,0,42.3-14.7,42.3-38.8l2.5-38.7c0-22.4-18.6-40.5-41.6-40.5h-6.3
				C103.6,47.8,85,66,85,88.4l2.5,38.7C87.4,151.2,105,165.9,129.7,165.9z"/>
			<path class="st3" d="M129.7,174.4c-7.9,0.2-15.8-1.8-22.6-5.7c1-5.7,1.5-11.6,1.5-11.6l21.2,1.1l21.2-1.1c0,0,0.5,5.9,1.5,11.6
				C145.5,172.6,137.6,174.5,129.7,174.4z"/>
			<path class="st6" d="M129.3,164L129.3,164c11.2,1.5,21.6-7,29.9-26.8c0,0,8.4-4.6,9.1-16.5l2-36.2c0-20.2-17-36.6-38.1-36.6h-5.8
				c-21,0-38.1,16.4-38.1,36.6l2.5,45C90.8,151.2,106.7,164,129.3,164z"/>
			<g transform="translate(74.056 60.233)">
				<path class="st7" d="M75.7,49.1L75.7,49.1c2,0,3.6-1.6,3.6-3.6v-1.8c-0.2-4.9-7.1-4.7-7.2,0c0,0.3,0,1.9,0,2
					C72.3,47.6,73.8,49.1,75.7,49.1z"/>
				<path class="st7" d="M35.6,49.1L35.6,49.1c2,0,3.6-1.6,3.6-3.6c0,0,0,0,0,0c0-0.1,0-1.9,0-1.9c-0.3-4.8-7.1-4.5-7.2,0.1
					c0,0.4,0,1.9,0,2.2C32.2,47.6,33.7,49.1,35.6,49.1z"/>
			</g>
			<path class="st8" d="M129.7,145.5c-6.3,0-11.3-5.1-11.3-11.3H141C141,140.4,136,145.5,129.7,145.5z"/>
			<path class="st9" d="M129.7,121c-2.5,0-4.5-1.2-4.5-2.6h9.1C134.3,119.9,132.2,121,129.7,121z"/>
			<g transform="translate(107.177 49.584)">
				<path class="st10" d="M49.9,42.9c0.7,0,1-0.9,0.5-1.3c-3.6-3-11.4-3.5-15.5,0c-0.7,0.6,0.2,1.7,0.9,1.1c3.5-3.1,10.5-2.5,13.6,0
					C49.6,42.8,49.7,42.9,49.9,42.9z"/>
			</g>
			<g transform="translate(70.003 49.584)">
				<path class="st10" d="M46.9,42.9c0.7,0,1-0.9,0.5-1.3c-3.6-3-11.4-3.5-15.5,0c-0.7,0.6,0.2,1.7,1,1.1c3.5-3.1,10.5-2.5,13.6,0
					C46.6,42.8,46.7,42.9,46.9,42.9z"/>
			</g>
			<path class="st11" d="M178.1,39.6l-10,9.9c0,0,4,1.1,10.8-1.6c3.4,30.4,1.7,40.3-9.5,64.8c-0.4-12.5-2.5-24.9-6.3-36.8
				c-6.2-19.2-60.4-19.2-66.5,0c-3.7,11.9-5.9,24.3-6.3,36.8c0,0-24.8-52.4,5.3-59.7C104.5,17.3,165.3,47.8,178.1,39.6z"/>
		</g>
		<g transform="translate(0 0)">
			<path class="st12" d="M53.3,44.3c14.4-6,29.6-2.5,34,7.9c9.2,25.6-40.4,46.3-52.1,21.9C30.7,63.7,38.9,50.3,53.3,44.3z"/>
			<path class="st12" d="M58.1,71.4c-32.6,32.1-26.9,80.2,34.2,103.8c-16.4-38.1-8.6-60.1,0.2-76.6c8.7,16.4,16.5,38.5,0.2,76.6
				c56.8-22.4,66.9-78.9,29.7-107.9C111.9,59.3,81.4,48.5,58.1,71.4z"/>
			<path class="st13" d="M165.1,314.7c-62.5,4.5-119.1-36.1-136.8-93.1c0.9-4.1,1.9-6.9,3-7.9c3.7-3.4,8.5-5.3,13.3-6.7
				c5.6-1.6,11.3-3.3,16.5-6.3c5-3.4,18.6-9.5,19-14.8c0,0,0-16,0-16h24.7v16c0,2.8,4.7,6.2,9.5,9.1c6.6,3.8,11.5,7.4,18.5,9.7
				c7.3,2.5,15.3,3.6,21,9.2c1.7,2,2.6,6.5,3.2,9.5c0.9,4.8,1.7,10.3,2.3,15.3C162.2,262.8,163.8,294.6,165.1,314.7z"/>
			<path class="st14" d="M92.5,176.9L92.5,176.9c-20.8,0-35.9-17.5-35.9-39.1l-1.7-30.4c0-20.1,15.6-36.3,34.9-36.3h5.3
				c19.3,0,34.9,16.3,34.9,36.3l-1.7,30.4C128.4,159.4,113.3,176.9,92.5,176.9z"/>
			<path class="st14" d="M104.9,170H80.1v10.3c7.8,3,17.1,2.9,24.7,0C104.9,180,104.9,170,104.9,170z"/>
			<path class="st15" d="M92.7,175.2L92.7,175.2c-12.5-2.4-15.3-5.4-22-22.2c-0.6-1.5-6.7-6.8-8.4-13.9l-4.1-35.1
				c0-18.1,14.3-32.8,32-32.8h4.9c17.6,0,32,14.7,32,32.8l-1.7,36C125.2,159.4,111.7,175.2,92.7,175.2z"/>
			<path class="st16" d="M74.5,126.6c-1.8,0-3.3-1.5-3.2-3.2c0-0.1,0-1.7,0-1.7c0.1-1.7,1.5-3.1,3.2-3.1c1.8,0,3.2,1.4,3.2,3.2v1.6
				C77.7,125.1,76.3,126.6,74.5,126.6z"/>
			<path class="st16" d="M110.5,126.6c-1.8,0-3.3-1.5-3.2-3.2c0-0.1,0-1.7,0-1.7c0.1-1.7,1.5-3.1,3.2-3.1c1.8,0,3.2,1.4,3.2,3.2v1.6
				C113.7,125.1,112.3,126.6,110.5,126.6z"/>
			<path class="st17" d="M92.5,140.9c2.2,0,4.1-1,4.1-2.3h-8.1C88.4,139.8,90.3,140.9,92.5,140.9z"/>
			<g transform="translate(45.02 68.948)">
				<path class="st18" d="M23,42.2c-0.6,0-0.9-0.8-0.4-1.1c3.2-2.7,10.2-3.2,13.9,0c0.6,0.6-0.2,1.5-0.9,1c-3.1-2.7-9.4-2.3-12.2,0
					C23.3,42.1,23.1,42.2,23,42.2z"/>
			</g>
			<g transform="translate(78.325 68.948)">
				<path class="st18" d="M25.7,42.2c-0.6,0-0.9-0.8-0.4-1.1c3.2-2.7,10.2-3.2,13.9,0c0.6,0.6-0.2,1.5-0.9,1
					c-3.1-2.7-9.4-2.3-12.2,0C26,42.1,25.8,42.2,25.7,42.2z"/>
			</g>
			<path class="st19" d="M165.1,314.7c-70.7,0-119.1-36.1-136.8-93.1c0.9-4.1,1.9-6.9,3-7.9c4.5-4.2,10.5-5.9,16.3-7.5
				c5.3-1.5,10.6-3.5,15.4-6.5c2.5-1.6,4.9-2.9,7.6-4.5c0,0,22,37,22,37l21.9-37c6.4,3.7,11.2,7.2,17.9,9.5
				c4.6,1.6,9.2,2.6,13.7,4.4c2.8,1.2,5.5,2.7,7.7,4.8c0.9,0.8,1.3,2,2,4.1c2.3,8.3,3.2,17.6,4.2,26.3
				C162.4,266.9,163.9,296.2,165.1,314.7z"/>
			<path class="st8" d="M92.5,160.4c5.6,0,10.1-3.4,10.1-7.6H82.4C82.4,157,86.9,160.4,92.5,160.4z"/>
			<path class="st20" d="M117.2,113.1c-5.1-1.3-19.8-1.3-22.2,4.9c0,0-4.8,0-4.8,0c-2.4-6.2-17.1-6.2-22.2-4.9c0,0-11.9,0-11.9,0
				v3.7h6.6c-2.5,4.2-0.6,10.3,0.2,13c0.7,2,2.3,3.6,4.3,4.3c4.9,1.9,11.2,2.4,15.8-0.7c4.1-3.1,6.6-9.8,7.3-13.3h4.8
				c0.7,3.5,3.2,10.2,7.3,13.3c5,3.7,17.7,3,20-3.6c0.8-2.7,2.7-8.8,0.2-13h6.6v-3.7H117.2z M88.1,119.4c-0.6,3.3-3.3,11-7.9,13.1
				c-4.4,1.6-13.1,1.6-15.4-3.3c-3.6-11.5-0.1-14.7,9.6-14.6C77.4,114.5,88.4,115.4,88.1,119.4z M120.2,129.2
				c-2.2,5-11,4.9-15.4,3.3c-4.6-2.1-7.2-9.8-7.8-13.1c-0.4-1.2,1.4-2.6,2.8-3.1c5.1-2.1,15.2-2.3,18.6-0.5
				C121.9,117.7,122.4,121.8,120.2,129.2z"/>
			<path class="st12" d="M70.6,82.2c-1.1,23.2-11.4,13.2-14.1,55.6c0,0-23.8-75.2,35.9-79.7c31.9-2.4,56.5,39.9,36.3,76
				C132.1,87.7,74.7,103.6,70.6,82.2z"/>
		</g>
		<g transform="translate(34.267 80.533)">
			<path class="st21" d="M204.5,205.9c-48.4,39.9-126.2,37.4-171.9-5.3c2-9,4.4-15.6,7.2-17.7c9.5-7.3,10.5-7.6,27.7-11.9
				c5.6-1.3,11.9-2.4,17.6-4.3c3.1-1.1,6.3-2.4,8.7-4.8c3.1-4.1,3.8-14.2,4.4-20c0,0,19.8,1,19.8,1c0,0,19.8-1,19.8-1
				c0.6,5.7,1.4,16,4.4,20c6.2,5.5,14.9,6.5,22.7,8.3c7.4,1.8,14.8,3.2,21.6,6.2c3.6,1.8,6.3,3.9,9.7,6.5c1.8,1.2,3.8,5.7,4.7,8.6
				C202.2,195.4,203.4,200.3,204.5,205.9z"/>
			<path class="st17" d="M118,150.2L118,150.2c-23.1,0-39.5-13.8-39.5-36.3l-2.3-36.2c0-20.9,17.4-37.9,38.9-37.9h5.9
				c21.5,0,38.9,17,38.9,37.9l-2.3,36.2C157.6,136.4,141.1,150.2,118,150.2z"/>
			<path class="st17" d="M118,158.1c7.4,0.1,14.7-1.7,21.2-5.4c-1-5.3-1.4-10.8-1.4-10.8l-19.8,1l-19.8-1c0,0-0.4,5.5-1.4,10.8
				C103.3,156.4,110.6,158.2,118,158.1z"/>
			<path class="st22" d="M118,148.4L118,148.4c-21.1,0-36-12-36-32.3l-2.3-42c0-18.9,15.9-34.2,35.6-34.2h5.4
				c19.6,0,35.6,15.3,35.6,34.2l-2.3,42C154,136.4,139.2,148.4,118,148.4z"/>
			<path class="st16" d="M98,89.2h2.5c1.2,0,2.1,1,2.1,2.1l0,0v4.2c0,1.2-1,2.1-2.1,2.1H98c-1.2,0-2.1-1-2.1-2.1c0,0,0,0,0,0v-4.2
				C95.9,90.2,96.8,89.2,98,89.2z"/>
			<path class="st16" d="M136.8,97.7c-1.9,0-3.4-1.5-3.4-3.4c0-0.1,0-1.8,0-1.8c0.3-4.5,6.7-4.2,6.7,0.1c0,0.3,0,1.7,0,1.9
				C140,96.3,138.6,97.7,136.8,97.7z"/>
			<path class="st17" d="M118,112.6c2.3,0,4.2-1.1,4.2-2.4h-8.5C113.8,111.5,115.7,112.6,118,112.6z"/>
			<g transform="translate(43.978 43.784)">
				<path class="st17" d="M112.2,68.4c6.4,1.2,10.2-5.4,10.8-12c0.5-5.7-1.7-12.2-9.7-13.1C112.3,52.8,111.7,59.6,112.2,68.4z"/>
				<path class="st17" d="M35.9,68.4c-6.4,1.2-10.2-5.4-10.8-12c-0.5-5.7,1.7-12.2,9.7-13.1C35.8,52.8,36.4,59.6,35.9,68.4z"/>
			</g>
			<g transform="translate(65.085 35.426)">
				<path class="st12" d="M27.4,46.1c-0.6,0-0.9-0.8-0.4-1.2c3.3-2.8,10.7-3.3,14.5,0c0.7,0.6-0.2,1.6-0.9,1
					c-3.3-2.9-9.8-2.4-12.7,0C27.7,46.1,27.5,46.1,27.4,46.1z"/>
			</g>
			<g transform="translate(99.834 35.426)">
				<path class="st12" d="M30.2,46.1c-0.6,0-0.9-0.8-0.4-1.2c3.3-2.8,10.7-3.3,14.5,0c0.7,0.6-0.2,1.6-0.9,1
					c-3.3-2.9-9.8-2.4-12.7,0C30.5,46.1,30.3,46.1,30.2,46.1z"/>
			</g>
			<path class="st8" d="M204.9,207.4c-22.8,17.9-51.9,28.2-83.2,28.2c-34.2,0-65.4-12.8-89.1-33.9c2-9,4.4-16.6,7.2-18.8
				c9.5-7.3,10.5-7.6,27.7-11.9c1.5-0.4,3.8-0.9,5.7-1.2c6-1.4,12.8-2.7,18.2-6c15.6,6,34.8,6.5,53-0.1c0.2,0.1,0.3,0.2,0.5,0.3
				c7.1,4.1,15.7,5.1,23.5,7c5.7,1.5,11.4,2.6,16.8,4.8c4.2,1.8,7.2,4.2,11,7.1c1.8,1.2,3.8,5.7,4.7,8.6
				C202.5,196.2,203.9,202.4,204.9,207.4z"/>
			<path class="st12" d="M118,113.8c3.7,0,9.5-0.5,11.6,0c5.7,1.3,9.5,6.3,14.6,6c6.4-0.3,6.6-15.8,13.9-26.3
				c1.7,17.3,20.5,60.6-40.1,60.6L118,113.8z"/>
			<path class="st12" d="M118,113.8c-3.7,0-9.5-0.5-11.6,0c-5.7,1.3-9.5,6.3-14.6,6c-6.4-0.3-6.6-15.8-13.9-26.3
				C76.2,110.7,57.4,154,118,154L118,113.8z"/>
			<path class="st8" d="M118,133c5.8,0,10.6-3.6,10.6-8h-21.2C107.4,129.4,112.2,133,118,133z"/>
			<path class="st23" d="M143.7,83.6c-6.1-1.4-20.8-1.2-23.2,5.1c0,0-5,0-5,0c-2.4-6.3-17.1-6.6-23.2-5.1c0,0-15.8,0-15.8,0
				s0.2,3.9,0.2,3.9h10c-2.6,4.4-0.6,10.8,0.2,13.6c0.8,2.1,2.4,3.7,4.5,4.5c4.6,1.9,10,2.2,14.7,0.3c5.4-2.4,8.6-10.8,9.4-14.9h5
				c0.8,4.1,4.1,12.6,9.4,14.9c4.7,1.8,10.1,1.6,14.7-0.3c2.1-0.8,3.7-2.4,4.5-4.5c0.9-2.8,2.8-9.2,0.2-13.6c0,0,10,0,10,0
				c0-1.1,0.2-2.8,0.2-3.9C159.5,83.6,143.7,83.6,143.7,83.6z M113.4,90.2c-0.6,3.4-3.5,11.6-8.2,13.6c-4.6,1.7-13.8,1.7-16.1-3.5
				c-3.7-12-0.1-15.3,10-15.2C103.8,85.2,113.7,86.2,113.4,90.2z M146.9,100.4c-2.3,5.1-11.5,5.1-16.1,3.5
				c-4.7-2.1-7.6-10.2-8.2-13.6c-0.1-0.5-0.1-1.3,1.2-2.3c4.3-3.1,17.2-3.6,21.2-1.5C148.7,88.4,149.3,92.7,146.9,100.4z"/>
		</g>
	</g>
</g>
</svg>
